<svg xmlns="http://www.w3.org/2000/svg" xmlns:xlink="http://www.w3.org/1999/xlink" width="58" height="58" viewBox="0 0 58 58" fill="none">
<path d="M32.625 30.2084L25.375 30.2084L25.375 4.228C25.375 2.5605 26.7271 1.20837 28.3946 1.20837L29.6054 1.20837C29.6548 1.20837 29.7042 1.20959 29.7535 1.21201C29.8029 1.21444 29.8522 1.21807 29.9014 1.22291C29.9505 1.22776 29.9996 1.23381 30.0484 1.24106C30.0973 1.24831 30.146 1.25676 30.1945 1.2664C30.2429 1.27604 30.2911 1.28686 30.3391 1.29887C30.387 1.31088 30.4346 1.32405 30.4819 1.3384C30.5292 1.35274 30.5761 1.36824 30.6226 1.38489C30.6692 1.40154 30.7153 1.41932 30.761 1.43823C30.8066 1.45714 30.8518 1.47716 30.8964 1.49829C30.9411 1.51942 30.9852 1.54163 31.0288 1.56493C31.0724 1.58822 31.1154 1.61258 31.1578 1.63798C31.2001 1.66339 31.2419 1.68982 31.283 1.71727C31.3241 1.74473 31.3645 1.77318 31.4042 1.80261C31.4439 1.83205 31.4828 1.86245 31.521 1.8938C31.5592 1.92515 31.5966 1.95742 31.6332 1.9906C31.6699 2.02379 31.7056 2.05786 31.7406 2.0928C31.7755 2.12775 31.8096 2.16353 31.8428 2.20015C31.8759 2.23676 31.9082 2.27417 31.9396 2.31237C31.9709 2.35057 32.0013 2.38952 32.0308 2.42921C32.0602 2.4689 32.0886 2.5093 32.1161 2.55039C32.1436 2.59148 32.1699 2.63321 32.1954 2.6756C32.2208 2.71799 32.2452 2.76097 32.2684 2.80456C32.2917 2.84814 32.3139 2.89227 32.3351 2.93694C32.3562 2.98162 32.3762 3.02678 32.3952 3.07244C32.4141 3.1181 32.4319 3.16419 32.4485 3.21072C32.4651 3.25725 32.4806 3.30416 32.495 3.35145C32.5093 3.39874 32.5225 3.44636 32.5345 3.49429C32.5465 3.54223 32.5573 3.59043 32.567 3.6389C32.5766 3.68737 32.5851 3.73605 32.5923 3.78493C32.5996 3.83381 32.6056 3.88284 32.6104 3.93202C32.6153 3.9812 32.6189 4.03048 32.6214 4.07983C32.6238 4.12919 32.625 4.17858 32.625 4.228L32.625 30.2084Z"   fill="#FFFFFF" >
</path>
<path d="M44.2829 34.8121L31.7767 55.0939C31.7433 55.1482 31.7082 55.2013 31.6714 55.2534C31.6346 55.3054 31.5963 55.3562 31.5563 55.4058C31.5163 55.4554 31.4747 55.5037 31.4317 55.5507C31.3886 55.5977 31.3442 55.6433 31.2982 55.6874C31.2523 55.7316 31.2051 55.7742 31.1564 55.8154C31.1078 55.8566 31.0579 55.8962 31.0068 55.9342C30.9556 55.9722 30.9033 56.0085 30.8499 56.0432C30.7965 56.0779 30.742 56.1109 30.6865 56.1422C30.6309 56.1734 30.5744 56.2028 30.5171 56.2305C30.4597 56.2582 30.4015 56.2841 30.3424 56.3081C30.2834 56.332 30.2237 56.3541 30.1633 56.3743C30.1028 56.3946 30.0418 56.4128 29.9802 56.4292C29.9186 56.4455 29.8566 56.4599 29.7942 56.4723C29.7317 56.4847 29.6688 56.4952 29.6057 56.5037C29.5425 56.5121 29.4792 56.5185 29.4156 56.523C29.352 56.5274 29.2884 56.5298 29.2247 56.5302C29.161 56.5306 29.0973 56.529 29.0337 56.5254C28.9701 56.5218 28.9067 56.5162 28.8434 56.5085C28.7801 56.5009 28.7172 56.4912 28.6545 56.4796C28.5918 56.468 28.5297 56.4544 28.4679 56.4388C28.4061 56.4232 28.3448 56.4057 28.2842 56.3863C28.2235 56.3669 28.1635 56.3456 28.1042 56.3223C28.0449 56.2991 27.9863 56.274 27.9286 56.247C27.8708 56.2201 27.814 56.1913 27.7581 56.1608C27.7022 56.1303 27.6472 56.098 27.5934 56.0639C27.5395 56.0299 27.4867 55.9942 27.4351 55.9569C27.3835 55.9196 27.3331 55.8806 27.284 55.84C27.2348 55.7995 27.187 55.7575 27.1405 55.7139C27.094 55.6704 27.049 55.6253 27.0053 55.5789C26.9617 55.5325 26.9195 55.4847 26.8789 55.4356C26.8383 55.3865 26.7993 55.3362 26.7618 55.2846C26.7244 55.2331 26.6887 55.1804 26.6546 55.1265L13.8112 34.8447C13.7932 34.8163 13.7757 34.7877 13.7586 34.7587C13.7416 34.7297 13.7251 34.7005 13.709 34.671C13.693 34.6414 13.6774 34.6117 13.6623 34.5816C13.6473 34.5516 13.6327 34.5213 13.6187 34.4908C13.6046 34.4603 13.5911 34.4295 13.5781 34.3985C13.565 34.3676 13.5525 34.3364 13.5405 34.305C13.5285 34.2736 13.5171 34.242 13.5061 34.2103C13.4952 34.1785 13.4848 34.1465 13.475 34.1144C13.4651 34.0823 13.4558 34.05 13.447 34.0176C13.4382 33.9851 13.4299 33.9526 13.4222 33.9199C13.4145 33.8872 13.4074 33.8543 13.4008 33.8214C13.3942 33.7884 13.3881 33.7554 13.3827 33.7222C13.3771 33.6891 13.3722 33.6559 13.3678 33.6226C13.3634 33.5892 13.3596 33.5559 13.3563 33.5224C13.353 33.489 13.3503 33.4555 13.3482 33.4219C13.346 33.3884 13.3444 33.3549 13.3433 33.3213C13.3423 33.2877 13.3419 33.2541 13.3419 33.2205C13.342 33.1869 13.3426 33.1533 13.3439 33.1197C13.3451 33.0861 13.3468 33.0526 13.3491 33.019C13.3515 32.9856 13.3544 32.9521 13.3578 32.9187C13.3612 32.8852 13.3652 32.8519 13.3698 32.8186C13.3744 32.7853 13.3795 32.7521 13.3851 32.719C13.3908 32.6859 13.397 32.6528 13.4038 32.6199C13.4105 32.587 13.4178 32.5542 13.4257 32.5215C13.4336 32.4889 13.442 32.4563 13.4509 32.4239C13.4599 32.3916 13.4693 32.3593 13.4794 32.3272C13.4894 32.2952 13.5 32.2633 13.5111 32.2316C13.5221 32.1999 13.5337 32.1683 13.5459 32.137C13.558 32.1056 13.5707 32.0745 13.5838 32.0436C13.597 32.0127 13.6107 31.982 13.6249 31.9516C13.6391 31.9211 13.6538 31.8909 13.669 31.861C13.6842 31.831 13.7 31.8013 13.7162 31.7719C13.7324 31.7424 13.749 31.7133 13.7662 31.6844C13.7834 31.6555 13.8011 31.6269 13.8192 31.5986C13.8373 31.5703 13.8559 31.5424 13.875 31.5147C13.894 31.487 13.9136 31.4597 13.9335 31.4327C13.9535 31.4057 13.9739 31.379 13.9948 31.3526C14.0157 31.3263 14.037 31.3003 14.0587 31.2747C14.0805 31.2491 14.1026 31.2238 14.1252 31.1989C14.1478 31.174 14.1708 31.1495 14.1942 31.1254C14.2176 31.1013 14.2414 31.0776 14.2656 31.0542C14.2897 31.0309 14.3143 31.008 14.3393 30.9855C14.3642 30.963 14.3895 30.9409 14.4152 30.9193C14.4409 30.8976 14.467 30.8764 14.4934 30.8556C14.5198 30.8348 14.5465 30.8144 14.5736 30.7945C14.6007 30.7747 14.628 30.7553 14.6558 30.7363C14.6835 30.7173 14.7116 30.6987 14.7399 30.6807C14.7682 30.6626 14.7969 30.6451 14.8258 30.628C14.8547 30.6109 14.8839 30.5943 14.9134 30.5782C14.9429 30.5621 14.9727 30.5465 15.0027 30.5313C15.0327 30.5162 15.0629 30.5016 15.0934 30.4875C15.1239 30.4734 15.1547 30.4598 15.1856 30.4467C15.2165 30.4336 15.2477 30.421 15.2791 30.409C15.3104 30.3969 15.342 30.3854 15.3737 30.3744C15.4055 30.3635 15.4374 30.353 15.4695 30.3431C15.5017 30.3332 15.5339 30.3238 15.5663 30.3149C15.5987 30.3061 15.6313 30.2978 15.664 30.29C15.6967 30.2822 15.7295 30.275 15.7624 30.2684C15.7953 30.2617 15.8284 30.2556 15.8615 30.25C15.8947 30.2445 15.9279 30.2395 15.9612 30.235C15.9945 30.2305 16.0279 30.2266 16.0613 30.2233C16.0948 30.2199 16.1282 30.2172 16.1617 30.2149C16.1953 30.2127 16.2288 30.2111 16.2624 30.21C16.296 30.2089 16.3296 30.2083 16.3632 30.2083L41.7128 30.2083C41.7462 30.2083 41.7796 30.2088 41.813 30.2099C41.8464 30.211 41.8797 30.2126 41.9131 30.2148C41.9465 30.217 41.9798 30.2197 42.013 30.223C42.0463 30.2263 42.0794 30.2301 42.1125 30.2345C42.1457 30.2389 42.1787 30.2438 42.2116 30.2493C42.2446 30.2548 42.2775 30.2608 42.3102 30.2674C42.343 30.274 42.3756 30.2811 42.4081 30.2887C42.4406 30.2964 42.473 30.3046 42.5053 30.3134C42.5375 30.3221 42.5696 30.3314 42.6016 30.3411C42.6335 30.351 42.6653 30.3613 42.6968 30.3721C42.7284 30.383 42.7599 30.3944 42.7911 30.4063C42.8223 30.4182 42.8533 30.4306 42.8841 30.4435C42.9149 30.4564 42.9455 30.4698 42.9758 30.4838C43.0063 30.4977 43.0364 30.5122 43.0662 30.5271C43.0961 30.542 43.1257 30.5575 43.1551 30.5734C43.1845 30.5894 43.2136 30.6058 43.2424 30.6226C43.2712 30.6395 43.2997 30.6569 43.328 30.6748C43.3562 30.6926 43.3842 30.7109 43.4119 30.7296C43.4395 30.7484 43.4668 30.7676 43.4938 30.7873C43.5208 30.807 43.5475 30.8271 43.5738 30.8476C43.6001 30.8682 43.6261 30.8892 43.6518 30.9106C43.6775 30.932 43.7027 30.9538 43.7276 30.9761C43.7525 30.9984 43.777 31.021 43.8012 31.0441C43.8254 31.0672 43.8491 31.0906 43.8725 31.1145C43.8959 31.1384 43.9189 31.1626 43.9415 31.1872C43.9641 31.2119 43.9862 31.2368 44.0079 31.2622C44.0297 31.2875 44.0511 31.3133 44.072 31.3393C44.0928 31.3654 44.1133 31.3918 44.1333 31.4186C44.1533 31.4453 44.1729 31.4724 44.192 31.4998C44.2111 31.5272 44.2298 31.5549 44.248 31.5829C44.2662 31.6109 44.2839 31.6392 44.3012 31.6678C44.3185 31.6964 44.3352 31.7253 44.3515 31.7544C44.3678 31.7836 44.3836 31.8131 44.399 31.8427C44.4143 31.8724 44.4291 31.9023 44.4435 31.9325C44.4578 31.9627 44.4717 31.9931 44.485 32.0238C44.4983 32.0544 44.5111 32.0852 44.5234 32.1163C44.5357 32.1474 44.5475 32.1786 44.5587 32.2101C44.57 32.2415 44.5807 32.2732 44.591 32.305C44.6011 32.3368 44.6108 32.3687 44.62 32.4009C44.6291 32.433 44.6377 32.4653 44.6458 32.4977C44.6539 32.5301 44.6615 32.5627 44.6684 32.5953C44.6755 32.628 44.6819 32.6608 44.6878 32.6936C44.6938 32.7265 44.6991 32.7595 44.7039 32.7925C44.7087 32.8256 44.713 32.8588 44.7167 32.8919C44.7204 32.9251 44.7236 32.9584 44.7262 32.9917C44.7288 33.025 44.7309 33.0583 44.7324 33.0917C44.7339 33.1251 44.7349 33.1585 44.7353 33.1919C44.7357 33.2253 44.7355 33.2587 44.7348 33.2921C44.7341 33.3255 44.7328 33.3589 44.731 33.3923C44.7292 33.4256 44.7268 33.4589 44.7239 33.4922C44.7209 33.5255 44.7175 33.5587 44.7135 33.5919C44.7094 33.625 44.7049 33.6581 44.6997 33.6911C44.6946 33.7241 44.6889 33.7571 44.6827 33.7899C44.6765 33.8227 44.6697 33.8554 44.6624 33.888C44.6551 33.9207 44.6473 33.9531 44.6389 33.9854C44.6305 34.0178 44.6216 34.05 44.6121 34.082C44.6027 34.1141 44.5927 34.146 44.5822 34.1777C44.5717 34.2094 44.5607 34.2409 44.5491 34.2722C44.5376 34.3036 44.5255 34.3348 44.5129 34.3657C44.5003 34.3966 44.4872 34.4274 44.4736 34.4579C44.46 34.4884 44.4459 34.5187 44.4313 34.5487C44.4167 34.5787 44.4015 34.6085 44.386 34.6381C44.3704 34.6676 44.3543 34.6969 44.3377 34.7259C44.3211 34.7549 44.3041 34.7836 44.2866 34.8121L44.2829 34.8121Z"   fill="#FFFFFF" >
</path>
</svg>
