<svg xmlns="http://www.w3.org/2000/svg" xmlns:xlink="http://www.w3.org/1999/xlink" fill="none" version="1.1" width="44" height="44" viewBox="0 0 44 44"><defs><clipPath id="master_svg0_52_35367"><rect x="0" y="0" width="44" height="44" rx="0"/></clipPath></defs><g clip-path="url(#master_svg0_52_35367)"><g><path d="M39.3750495625,27.740717L38.7528765625,27.362858C38.8761825625,27.160051,38.9950595625,26.954588,39.1094205625,26.746613L39.7471545625,27.097403C39.6276705625,27.314442,39.5036085625,27.528927,39.3750495625,27.740717ZM40.0916675625,26.438793L39.4396745625,26.115417C39.5450515625,25.902634,39.6460795625,25.687721,39.7426835625,25.470814L40.4074825625,25.766518C40.3070255625,25.99284,40.2017325625,26.216986,40.0916675625,26.438793ZM40.6955375625,25.081867L40.0188785625,24.813662C40.1064795625,24.592659,40.1896555625,24.369928,40.2683485625,24.145599L40.9548915625,24.386391C40.8732525625,24.620134,40.7867965625,24.851902,40.6955375625,25.081867ZM41.1866605625,23.681374L40.4910965625,23.467909C40.5608175625,23.240408,40.6262285625,23.011608,40.6872905625,22.781628L41.3909305625,22.968281C41.3274455625,23.207275,41.2593425625,23.445017,41.1866605625,23.681374ZM41.5674395625,22.248138L40.8576125625,22.087955C40.9100225625,21.855637,40.9581225625,21.622366,41.0018955625,21.388268L41.7173955625,21.522499C41.6717335625,21.765253,41.6217385625,22.007172,41.5674395625,22.248138ZM41.8405415625,20.792217L41.1208345625,20.683336C41.1564555625,20.447718,41.1878015625,20.21147,41.2148475625,19.974712L41.9379115625,20.057726C41.9097635625,20.303108,41.8773005625,20.547977,41.8405415625,20.792217ZM42.0097505625,19.321085L41.2843665625,19.26265C41.3035315625,19.025295,41.3182255625,18.787252,41.3293955625,18.548782L42.0562405625,18.582211C42.0449335625,18.828749,42.0294345625,19.075075,42.0097505625,19.321085ZM42.0779835625,17.842562L41.3501925625,17.833712C41.3513945625,17.738581,41.3520815625,17.643536,41.3520815625,17.548405C41.3520815625,17.40472,41.3504525625,17.261293,41.3470955625,17.118383L42.0748865625,17.101799C42.0782355625,17.250296,42.0798725625,17.399136,42.0798725625,17.548407C42.0798725625,17.64646,42.0791015625,17.744513,42.0779835625,17.842562ZM41.3177105625,16.405546C41.3034175625,16.168135,41.2845385625,15.931024,41.2610775625,15.694343L41.9855155625,15.622931C42.0094065625,15.867933,42.0290875625,16.11414,42.0440365625,16.361633L41.3177105625,16.405546ZM41.1778945625,14.986061C41.1455005625,14.750348,41.1086275625,14.515272,41.0672955625,14.280959L41.7841715625,14.15472C41.8267975625,14.39723,41.8652115625,14.641374,41.8990665625,14.886806L41.1778945625,14.986061ZM40.9298855625,13.580928C40.8795625625,13.348459,40.8248405625,13.116964,40.7657475625,12.886568L41.4707645625,12.705587C41.5321805625,12.944944,41.5889625625,13.185466,41.6410865625,13.427017L40.9298855625,13.580928ZM40.5752255625,12.198911C40.5073895625,11.970948,40.4351315625,11.744322,40.3584975625,11.519159L41.0474435625,11.284727C41.1269645625,11.518733,41.2020875625,11.754209,41.2727695625,11.991033L40.5752255625,12.198911ZM40.1158145625,10.848347C40.0304485625,10.626158,39.9409445625,10.40558,39.8473515625,10.186728L40.5163615625,9.9003906C40.6135935625,10.12753,40.7065655625,10.356475,40.7952195625,10.587102L40.1158145625,10.848347ZM39.5541385625,9.5365391C39.4519535625,9.3215618,39.3458065625,9.1084909,39.2357485625,8.8974361L39.8811225625,8.5608263C39.9953995625,8.7798872,40.1055035625,9.0010958,40.2113765625,9.2243347L39.5541385625,9.5365391ZM38.8938105625,8.2712221C38.7755505625,8.0646029,38.6534465625,7.8602123,38.5275535625,7.6581573L39.1454275625,7.2732515C39.2761195625,7.4830279,39.4028165625,7.6952701,39.5254365625,7.909863L38.8938105625,8.2712221ZM38.1390385625,7.0596151C38.0053295625,6.8625607,37.8680685625,6.667942,37.7273175625,6.4758549L38.3143465625,6.0454893C38.4603995625,6.2447453,38.6027335625,6.4467001,38.7412755625,6.6512494L38.1390385625,7.0596151ZM37.2944645625,5.9081635C37.2111475625,5.8029928,37.1266405625,5.6987748,37.0409545625,5.59553C36.9746095625,5.5156097,36.9078365625,5.4362912,36.8402935625,5.3574018L37.3932875625,4.8840685C37.4631535625,4.9657073,37.5323335625,5.0479479,37.6010775625,5.1307898C37.6902775625,5.2382383,37.7782515625,5.3466964,37.8649865625,5.4561419L37.2944645625,5.9081635ZM36.3660165625,4.8242574C36.2042805625,4.6494503,36.0392855625,4.4776921,35.8711125625,4.309073L36.3866385625,3.7951775C36.5610385625,3.9702647,36.7321925625,4.1485543,36.9000205625,4.3299551L36.3660165625,4.8242574ZM35.357904562499996,3.8130524C35.1835685625,3.6509132,35.006164562500004,3.4921038,34.8257905625,3.3367109L35.3010135625,2.7854338C35.4882445625,2.9468553,35.6724355625,3.1117661,35.8534965625,3.2800794L35.357904562499996,3.8130524ZM34.276922562500005,2.8808224C34.0906185625,2.7324855,33.9017005625,2.5874605,33.7102625625,2.445816L34.1424335625,1.8604225C34.3412395625,2.0071566,34.5372655625,2.1576281,34.7304035625,2.3117566L34.276922562500005,2.8808224ZM33.1281355625,2.0328953C32.9312785625,1.8988694,32.7319295625,1.7685394,32.5301955625,1.6419741L32.9168205625,1.0253857C33.126205562500004,1.1567882,33.333146562500005,1.2920454,33.537532562500004,1.431088L33.1281355625,2.0328953ZM22.1047345625,42.154102C22.0115335625,42.154224,21.9218615625,42.118465,21.8543165625,42.054245L10.7679309625,31.541391C10.622969662500001,31.404459,10.4771914625,31.268393,10.3306050625,31.1332C10.0835399625,30.904266,9.8279671625,30.667515,9.5825352625,30.424231C6.2340525625000005,27.104195,4.3134765625,22.499588,4.3134765625,17.791174C4.3134765625,7.981102,12.294577562499999,0,22.1047345625,0C31.9148905625,0,39.8959925625,7.981102,39.8959925625,17.791172C39.8959925625,22.447767,38.0435635625,26.979155,34.8135015625,30.223568L34.8132415625,30.223568C34.5292265625,30.508961,34.2413425625,30.783094,33.9217455625,31.086105L33.915817562499996,31.080002C33.8296245625,31.173414,33.681039562500004,31.314434,33.424693562499996,31.557375L22.3551525625,42.054245C22.2876095625,42.118465,22.1979365625,42.154224,22.1047345625,42.154102ZM22.1047345625,0.72778994C12.6958970625,0.72778994,5.0412643525,8.3824224,5.0412643525,17.791174C5.0412643525,22.306921,6.8832952625,26.723068,10.094968362500001,29.907415C10.3315491625,30.142021,10.5825672625,30.374388,10.8251633625,30.599281C10.973826862500001,30.736406,11.1216678625,30.874424,11.268677262499999,31.013319L22.1048225625,41.288731L33.4208255625,30.558287C33.7366405625,30.258802,34.0204845625,29.988619,34.2978855625,29.7101L34.2976265625,29.7101C37.3931155625,26.601034,39.1682895625,22.256729,39.1682895625,17.79117C39.1682015625,8.3824196,31.5135725625,0.72778654,22.1047345625,0.72778994Z" fill="#4A555F" fill-opacity="1" style="mix-blend-mode:passthrough"/></g><g><path d="M22.10390628125,1.576904296875C13.16419218125,1.576904296875,5.89111328125,8.850068596875001,5.89111328125,17.792188296875C5.89111328125,22.081237296875,7.64024778125,26.278248296875,10.692080981250001,29.303358296875C10.92015408125,29.529024296875,11.15303998125,29.747303296875,11.40285448125,29.975374296875L11.85410258125,30.397575296875L22.10382128125,40.118442296875Q27.46961928125,35.031028296875,32.83632428125,29.941429296875C33.16142128125,29.633438296875,33.430656281249995,29.378637296875,33.695078281250005,29.111808296875C36.632959281249995,26.159403296875,38.31901928125,22.032858296875,38.31901928125,17.792278296875C38.31910728125,8.850071896875,31.04602828125,1.5769076538086,22.10390628125,1.576904296875ZM22.10390628125,26.336425296875C17.264096281249998,26.336425296875,13.326696381249999,22.399027296875,13.326696381249999,17.556809296875002C13.326696381249999,12.716913296875,17.264096281249998,8.779685496875,22.10390628125,8.779685496875C26.94612528125,8.779685496875,30.88352228125,12.716913296875,30.88352228125,17.556809296875002C30.88352228125,22.399112296875,26.94612328125,26.336425296875,22.10390628125,26.336425296875Z" fill="#F58E6F" fill-opacity="1" style="mix-blend-mode:passthrough"/></g><g><path d="M39.532146421875,43.99890359375L4.677503761875,43.99890359375C4.418672871875,43.99875559375,4.242638624875,43.73618559375,4.340807951875,43.49669559375L9.768590021875,30.28580902375C9.865728421875,30.04936004575,10.169963821875001,29.98410125775,10.355530221875,30.15991394175L22.104652421875,41.288752593750004L33.838392421875,30.16008514375C34.023796421875005,29.98430938975,34.327863421875,30.04927276675,34.425249421875,30.28546661375L39.868499421875,43.496355593749996C39.967151421875,43.73583359375,39.791149421875,43.99880259375,39.532146421875,43.99890359375ZM5.220359381875,43.271112593750004L38.988689421875,43.271112593750004L33.954576421875004,31.05312347375L22.355239421875,42.054090593750004C22.214880421875,42.18717559375,21.994947421875,42.18725059375,21.854492421875,42.05426159375L10.240204321875,31.05312681375L5.220359381875,43.271112593750004Z" fill="#4A555F" fill-opacity="1" style="mix-blend-mode:passthrough"/></g><g><path d="M36.086994234375,42.15388784375L22.103802944375,42.15388784375C21.954889374375,42.15379684375,21.821048431375,42.06301484375,21.765892334375,41.92469284375C21.710737915375,41.78636984375,21.745393218975,41.62840384375,21.853385764375,41.52586934375L32.287435234374996,31.63278503375C32.478052234375,31.45189667475,32.791687234375004,31.52653137265,32.880390234375,31.77389036375L36.429532234375,41.66706184375C36.469563234375,41.77855184375,36.452761234375004,41.90255784375,36.384502234375,41.99937484375C36.316440234375,42.096285843749996,36.205416234375,42.153947843750004,36.086994234375,42.15388784375ZM23.016353534375,41.42609784375L35.569834234375,41.42609784375L32.383598234375,32.54456174375L23.016353534375,41.42609784375Z" fill="#4A555F" fill-opacity="1" style="mix-blend-mode:passthrough"/></g><g><path d="M25.1533203125,40.577304334375L34.363045712499996,40.577304334375L32.0296345125,34.075927734375L25.1533203125,40.577304334375Z" fill="#FFD452" fill-opacity="1" style="mix-blend-mode:passthrough"/></g><g><path d="M22.10494665625,25.4880426875C17.73228265625,25.4880426875,14.17489145625,21.9306496875,14.17489145625,17.5579857875C14.17489145625,13.185321587499999,17.732197756250002,9.6279296875,22.10494965625,9.6279296875C26.47752765625,9.6279296875,30.03500765625,13.185321587499999,30.03500765625,17.5579857875C30.03500765625,21.9306496875,26.47752765625,25.4880426875,22.10494665625,25.4880426875ZM22.10494665625,10.3556348075C18.133602656249998,10.3556348075,14.902679956250001,13.5865571875,14.902679956250001,17.5579018875C14.902679956250001,21.5292466875,18.133602656249998,24.7601686875,22.10494665625,24.7601686875C26.07620665625,24.7601686875,29.30721865625,21.5292466875,29.30721865625,17.5579018875C29.30721865625,13.5865571875,26.07620965625,10.3556348075,22.10494665625,10.3556348075ZM22.10391665625,42.1538886875L8.12055316625,42.1538886875C7.86877472625,42.1537396875,7.69313071625,41.9042166875,7.77792770625,41.6671486875L11.32724235625,31.7739776875C11.41616155625,31.5268616875,11.72949955625,31.4522936875,11.920198456249999,31.6328736875L22.35424565625,41.5259536875C22.46225565625,41.6284756875,22.496969656250002,41.7864226875,22.44190265625,41.9247816875C22.38668765625,42.0630756875,22.25282665625,42.1538126875,22.10391665625,42.1538886875ZM8.63771313625,41.426097687500004L21.191195656250002,41.426097687500004L11.82403565625,32.5445616875L8.63771313625,41.426097687500004Z" fill="#4A555F" fill-opacity="1" style="mix-blend-mode:passthrough"/></g><g><path d="M12.177807321875001,34.075927734375L9.844482421875,40.577304334375L19.054205921875003,40.577304334375L12.177807321875001,34.075927734375Z" fill="#FFD452" fill-opacity="1" style="mix-blend-mode:passthrough"/></g><g><path d="M12.651611328125,41.680709803125L14.744832228125,35.032470703125L15.438848028125,35.251003723125L13.345713558125,41.899242903125L12.651611328125,41.680709803125Z" fill="#4A555F" fill-opacity="1" style="mix-blend-mode:passthrough"/></g><g><path d="M9.442626953125,37.740563846875L18.213648753125,37.740563846875L18.213648753125,38.468353746875L9.442626953125,38.468353746875L9.442626953125,37.740563846875ZM17.965381653125,41.717150646875L18.562892953125,38.696856946875L19.277018553125,38.838133546875L18.679336553124998,41.858427046875L17.965381653125,41.717150646875ZM28.768435953125,35.252468566875L29.462623953125,35.033935546875L31.555158953125,41.682950046875L30.860970953125,41.901399146875L28.768435953125,35.252468566875Z" fill="#4A555F" fill-opacity="1" style="mix-blend-mode:passthrough"/></g><g><path d="M25.994894015625,37.740503265625L34.764629015625,37.740503265625L34.764629015625,38.468294265625005L25.994894015625,38.468294265625005L25.994894015625,37.740503265625ZM24.930840015625,38.842544265625L25.644964015625,38.701265265625L26.242475015625,41.721557265625L25.528437015625,41.862838265625L24.930840015625,38.842544265625ZM3.6694994156250003,25.037324865625C3.533038715625,24.823072465625,3.406577815625,24.602610565625,3.290523215625,24.376651765625L3.937532415625,24.043564765625C4.043311615625,24.249454465625,4.158530715625,24.450356465625,4.282822115625001,24.645629865625L3.6694994156250003,25.037324865625ZM2.972217415625,23.689681965625C2.8756634556250003,23.457701165625,2.787267385625,23.222408765624998,2.707191945625,22.984236265625L3.396825715625,22.751865865625C3.473308415625,22.978994365625,3.556494015625,23.200192465625,3.643804915625,23.409359965625L2.972217415625,23.689681965625ZM2.489860715625,22.266587265625C2.424813215625,22.026142165625,2.366184355625,21.784003265625,2.314036275625,21.540430565625L3.025755315625,21.387895065625C3.075113815625,21.618816865625,3.130648115625,21.848375765625,3.192298615625,22.076324965625L2.489860715625,22.266587265625ZM2.175336185625,20.809031965625C2.134923945625,20.564486065625,2.099682655625,20.319112765625,2.069635375625,20.073079565625L2.7920105456249997,19.984565765625C2.820455315625,20.216592265625,2.8539701056249998,20.452314365625,2.893414675625,20.689839365624998L2.175336185625,20.809031965625ZM1.9938400086249999,19.334806165625C1.973307743625,19.088620465625,1.957149352625,18.842088965625,1.945372391625,18.595329065625002L2.672216055625,18.560353265625C2.683387755625,18.790489465625,2.698512375625,19.029132165625,2.718964935625,19.274134665625L1.9938400086249999,19.334806165625ZM1.922341518325,17.855165465625C1.918929405125,17.608447665625,1.919530925745,17.361694565625,1.924146079925,17.115001965625L2.6516773056250003,17.128837565625C2.647228535625,17.367455165625,2.6467128356250003,17.606129765625,2.650130395625,17.844767365625L1.922341518325,17.855165465625ZM2.677200255625,16.413938285625L1.950356596625,16.374924005625C1.975192032625,15.912331845625,2.006042882625,15.638627624625,2.007331944625,15.627197265625L2.730394665625,15.709265902625C2.730136815625,15.712015226625,2.700660825625,15.975237425625,2.677200255625,16.413938285625Z" fill="#4A555F" fill-opacity="1" style="mix-blend-mode:passthrough"/></g></g></svg>